<?xml version="1.0" encoding="UTF-8" standalone="no"?>
<!-- Created with Inkscape (http://www.inkscape.org/) -->

<svg
   xmlns:dc="http://purl.org/dc/elements/1.1/"
   xmlns:cc="http://creativecommons.org/ns#"
   xmlns:rdf="http://www.w3.org/1999/02/22-rdf-syntax-ns#"
   xmlns:svg="http://www.w3.org/2000/svg"
   xmlns="http://www.w3.org/2000/svg"
   xmlns:sodipodi="http://sodipodi.sourceforge.net/DTD/sodipodi-0.dtd"
   xmlns:inkscape="http://www.inkscape.org/namespaces/inkscape"
   version="1.0"
   width="300"
   height="300"
   viewBox="0 0 297.59815 567.18777"
   id="svg2"
   xml:space="preserve"
   inkscape:version="0.48.4 r9939"
   sodipodi:docname="mysqllogo.svg"><metadata
   id="metadata16"><rdf:RDF><cc:Work
       rdf:about=""><dc:format>image/svg+xml</dc:format><dc:type
         rdf:resource="http://purl.org/dc/dcmitype/StillImage" /></cc:Work></rdf:RDF></metadata><sodipodi:namedview
   pagecolor="#ffffff"
   bordercolor="#666666"
   borderopacity="1"
   objecttolerance="10"
   gridtolerance="10"
   guidetolerance="10"
   inkscape:pageopacity="0"
   inkscape:pageshadow="2"
   inkscape:window-width="1360"
   inkscape:window-height="746"
   id="namedview14"
   showgrid="false"
   fit-margin-top="0"
   fit-margin-left="0"
   fit-margin-right="0"
   fit-margin-bottom="0"
   inkscape:zoom="0.60235022"
   inkscape:cx="33.361886"
   inkscape:cy="71.462647"
   inkscape:window-x="-8"
   inkscape:window-y="-8"
   inkscape:window-maximized="1"
   inkscape:current-layer="g2191" />
 <defs
   id="defs4"><style
     type="text/css"
     id="style6" /></defs>
 <g
   transform="matrix(2.0645171,0,0,2.0645171,-422.69056,-168.66908)"
   id="g2191"><g
     id="g3027"
     transform="translate(0.33268332,-3.146593)"><path
       id="path16"
       style="fill:#00546b"
       d="m 391.63976,295.61035 c -14.8792,-0.37103 -26.4108,1.11782 -36.0826,5.20867 -2.78985,1.11547 -7.25409,1.11664 -7.6263,4.64974 1.48887,1.48887 1.67438,3.90651 2.97655,5.95193 2.2333,3.71862 6.13744,8.74177 9.67172,11.3461 3.90532,2.97537 7.81182,5.95074 11.9027,8.55507 7.25409,4.46424 15.4381,7.06738 22.5055,11.5316 4.0932,2.60196 8.18286,5.95192 12.2749,8.74177 2.0466,1.4865 3.34759,3.90531 5.95192,4.83526 0,-0.1867 0,-0.37222 0,-0.55773 -1.30217,-1.67437 -1.67438,-4.09201 -2.97537,-5.95192 -1.85872,-1.8599 -3.7198,-3.53428 -5.5797,-5.39418 -5.39419,-7.25292 -12.0894,-13.577 -19.3434,-18.7845 -5.95074,-4.09203 -18.9712,-9.67173 -21.3889,-16.55361 10e-4,0 -0.1867,-0.18552 -0.37222,-0.37104 4.09202,-0.37222 8.92729,-1.85989 12.8338,-2.97655 6.32414,-1.67437 12.0894,-1.30216 18.599,-2.97537 2.97537,-0.74442 5.95192,-1.67437 8.92729,-2.60433 0,-0.55891 0,-1.11546 0,-1.67319 -3.3464,-3.34878 -5.76522,-7.81182 -9.29951,-10.97391 -9.48502,-8.18521 -19.9012,-16.18139 -30.6884,-22.87659 -5.7664,-3.7198 -13.206,-6.13863 -19.3434,-9.29952 -2.23094,-1.11782 -5.95192,-1.67437 -7.25291,-3.53429 -3.34877,-4.09201 -5.20867,-9.48501 -7.6263,-14.3215 -5.39182,-10.23059 -10.6017,-21.57439 -15.2514,-32.36159 -3.3464,-7.25409 -5.393,-14.50821 -9.48502,-21.2033 -19.1567,-31.6183 -39.9879,-50.7751 -71.9784,-69.5608 -6.88187,-3.90533 -15.0647,-5.5797 -23.8065,-7.62512 -4.64857,-0.1867 -9.29951,-0.55773 -13.9493,-0.74443 -2.97537,-1.30218 -5.95192,-4.83527 -8.55626,-6.509655 -10.5993,-6.69635 -37.9413,-21.2022 -45.7531,-2.04542 -5.02197,12.089395 7.43961,23.992005 11.7171,30.130595 3.16325,4.27755 7.25409,9.11281 9.48621,13.94931 1.30217,3.15971 1.6732,6.50965 2.97537,9.85724 2.97655,8.18168 5.76522,17.2968 9.67172,24.92319 2.0466,3.90533 4.27754,7.99735 6.88187,11.53041 1.48768,2.04542 4.09084,2.97655 4.64975,6.32414 -2.60315,3.71979 -2.78985,9.29951 -4.27872,13.9493 -6.69517,21.0166 -4.09084,47.0553 5.39419,62.49219 2.97537,4.64858 10.0439,14.8804 19.529,10.97391 8.36956,-3.3476 6.50965,-13.9493 8.92729,-23.24881 0.55892,-2.2333 0.1867,-3.71979 1.30217,-5.20749 10e-4,0.18552 0,0.37221 0,0.37221 2.60433,5.20749 5.20749,10.2295 7.62512,15.4369 5.7664,9.11281 15.8092,18.59901 24.1787,24.92321 4.46542,3.34639 7.99852,9.11281 13.5782,11.1594 0,-0.18789 0,-0.37222 0,-0.55892 -0.1867,0 -0.1867,0 -0.37221,0 -1.11665,-1.67437 -2.78985,-2.41764 -4.27754,-3.71979 -3.34759,-3.34759 -7.06857,-7.43962 -9.67172,-11.1594 -7.81064,-10.4162 -14.6937,-21.9466 -20.8311,-33.8504 -2.97537,-5.76522 -5.5797,-12.08941 -7.99734,-17.85461 -1.11665,-2.23329 -1.11665,-5.5797 -2.97655,-6.69516 -2.78985,4.09083 -6.88069,7.62512 -8.92729,12.6471 -3.53192,7.99734 -3.90532,17.8546 -5.20749,28.08399 -0.74326,0.18671 -0.37222,0 -0.74444,0.37223 -5.95074,-1.48887 -7.99734,-7.62512 -10.2295,-12.8338 -5.5797,-13.2048 -6.50965,-34.4082 -1.6732,-49.6584 1.30217,-3.9065 6.88187,-16.1814 4.64975,-19.90121 -1.11547,-3.53429 -4.83645,-5.5797 -6.88187,-8.36955 -2.41764,-3.53429 -5.02197,-7.99734 -6.69517,-11.9038 -4.46424,-10.415 -6.69635,-21.9466 -11.5316,-32.3628 -2.23212,-4.83645 -6.13744,-9.85724 -9.29951,-14.32031 -3.5331,-5.02196 -7.43961,-8.55625 -10.2295,-14.50819 -0.92877,-2.04542 -2.23212,-5.393 -0.74443,-7.62513 0.37222,-1.487675 1.11547,-2.045415 2.60433,-2.417635 2.41764,-2.0466 9.29951,0.55773 11.7171,1.673205 6.88187,2.78866 12.6471,5.39419 18.4135,9.29951 2.60315,1.8599 5.393,5.39419 8.74059,6.32414 1.30217,0 2.60433,0 3.9065,0 5.95192,1.30099 12.6471,0.3722 18.2268,2.04542 9.85842,3.16089 18.7845,7.81182 26.7831,12.8338 24.3654,15.4369 44.4509,37.3847 58.0292,63.6089 2.23212,4.27636 3.16089,8.18403 5.20749,12.6471 3.9065,9.11399 8.74177,18.4135 12.6471,27.3408 3.90532,8.74059 7.62512,17.66909 13.2048,24.92319 2.79103,3.90415 13.9493,5.95074 18.9712,7.99734 3.7198,1.67321 9.48621,3.16208 12.8338,5.20749 6.32296,3.90414 12.6471,8.36957 18.599,12.6471 2.97655,2.23095 12.2749,6.88188 12.8338,10.60051 l 4e-5,-2e-5 z"
       inkscape:connector-curvature="0" /><path
       id="path18"
       style="fill:#00546b"
       d="m 201.92776,133.98434 c -3.16207,0 -5.393,0.3734 -7.62512,0.93114 0,-0.001 0,0.1867 0,0.37222 0.1867,0 0.18552,0 0.37222,0 1.48887,2.97537 4.09084,5.02197 5.95074,7.62511 1.48887,2.97537 2.78985,5.95193 4.27872,8.92848 0.18551,-0.1867 0.37103,-0.37222 0.37103,-0.37222 2.60552,-1.86108 3.9065,-4.83645 3.9065,-9.29951 -1.11665,-1.30217 -1.30217,-2.60433 -2.23212,-3.9065 -1.11547,-1.86109 -3.53429,-2.78985 -5.02197,-4.27872 l 0,0 z"
       inkscape:connector-curvature="0" /></g></g>
</svg>