<?xml version="1.0" encoding="UTF-8" standalone="no"?>
<!-- Created with Inkscape (http://www.inkscape.org/) -->

<svg
   xmlns:dc="http://purl.org/dc/elements/1.1/"
   xmlns:cc="http://creativecommons.org/ns#"
   xmlns:rdf="http://www.w3.org/1999/02/22-rdf-syntax-ns#"
   xmlns:svg="http://www.w3.org/2000/svg"
   xmlns="http://www.w3.org/2000/svg"
   xmlns:sodipodi="http://sodipodi.sourceforge.net/DTD/sodipodi-0.dtd"
   xmlns:inkscape="http://www.inkscape.org/namespaces/inkscape"
   width="128"
   height="128"
   id="svg2"
   version="1.1"
   inkscape:version="0.48.4 r9939"
   sodipodi:docname="Neues Dokument 1">
  <defs
     id="defs4" />
  <sodipodi:namedview
     id="base"
     pagecolor="#ffffff"
     bordercolor="#666666"
     borderopacity="1.0"
     inkscape:pageopacity="0.0"
     inkscape:pageshadow="2"
     inkscape:zoom="3.959798"
     inkscape:cx="51.174607"
     inkscape:cy="58.010865"
     inkscape:document-units="px"
     inkscape:current-layer="layer1"
     showgrid="false"
     fit-margin-top="0"
     fit-margin-left="0"
     fit-margin-right="0"
     fit-margin-bottom="0"
     inkscape:window-width="1920"
     inkscape:window-height="1017"
     inkscape:window-x="-8"
     inkscape:window-y="-8"
     inkscape:window-maximized="1" />
  <metadata
     id="metadata7">
    <rdf:RDF>
      <cc:Work
         rdf:about="">
        <dc:format>image/svg+xml</dc:format>
        <dc:type
           rdf:resource="http://purl.org/dc/dcmitype/StillImage" />
        <dc:title></dc:title>
      </cc:Work>
    </rdf:RDF>
  </metadata>
  <g
     inkscape:label="Ebene 1"
     inkscape:groupmode="layer"
     id="layer1"
     transform="translate(-283.9758,-424.28822)">
    <path
       sodipodi:type="arc"
       style="fill:none;stroke:#000000;stroke-width:3.98000097;stroke-linecap:round;stroke-linejoin:round;stroke-miterlimit:4;stroke-opacity:1;stroke-dasharray:none"
       id="path2996"
       sodipodi:cx="304.18219"
       sodipodi:cy="554.86206"
       sodipodi:rx="24.875006"
       sodipodi:ry="24.875006"
       d="m 329.0572,554.86206 c 0,13.73809 -11.13692,24.87501 -24.87501,24.87501 -13.73809,0 -24.87501,-11.13692 -24.87501,-24.87501 0,-13.73809 11.13692,-24.87501 24.87501,-24.87501 13.73809,0 24.87501,11.13692 24.87501,24.87501 z"
       transform="matrix(2.3822812,0,0,2.3822812,-376.67171,-833.54924)" />
    <g
       id="g3784"
       transform="matrix(2.3703704,0,0,2.3703704,-389.15205,-756.83943)">
      <path
         inkscape:connector-curvature="0"
         id="path3782"
         d="m 309.22582,508.36636 c -7.98014,0.8251 -14.33457,7.20235 -15.15625,15.1875 l 15.15625,0 0,-15.1875 z"
         style="fill:#ff5cc4;fill-opacity:1;stroke:none" />
      <path
         inkscape:connector-curvature="0"
         id="path3780"
         d="m 312.72582,508.36636 0,15.1875 15.15625,0 c -0.82,-7.9941 -7.16229,-14.37567 -15.15625,-15.1875 z"
         style="fill:#ffb94c;fill-opacity:1;stroke:none" />
      <path
         inkscape:connector-curvature="0"
         id="path3778"
         d="m 294.06957,527.05386 c 0.82169,7.98143 7.17619,14.33107 15.15625,15.15625 l 0,-15.15625 -15.15625,0 z"
         style="fill:#029bef;fill-opacity:1;stroke:none" />
      <path
         inkscape:connector-curvature="0"
         id="path3766"
         d="m 312.72582,527.05386 0,15.15625 c 7.99396,-0.81183 14.33625,-7.16582 15.15625,-15.15625 l -15.15625,0 z"
         style="fill:#2dea74;fill-opacity:1;stroke:none" />
    </g>
  </g>
</svg>
